<svg width="446" height="124" viewBox="0 0 446 124" fill="none" xmlns="http://www.w3.org/2000/svg">
<mask id="mask0_1395_977" style="mask-type:luminance" maskUnits="userSpaceOnUse" x="40" y="71" width="67" height="44">
<path d="M40.668 71.334H106.345V114.777H40.668V71.334Z" fill="white"/>
</mask>
<g mask="url(#mask0_1395_977)">
<path d="M85.3711 85.974C78.7565 94.651 68.319 100.266 56.6003 100.266C53.8294 100.266 51.1055 99.9687 48.4648 99.3646L41.1055 111.901C46.0898 113.516 51.2826 114.339 56.6003 114.339C63.3815 114.339 69.9596 113.01 76.1628 110.385C82.1419 107.854 87.5169 104.234 92.1263 99.625C96.1211 95.6302 99.3711 91.0677 101.814 86.0313C102.194 85.25 102.553 84.4531 102.892 83.6458C104.486 79.8854 105.6 75.9792 106.23 71.9688H64.5846L56.3294 85.974H85.3711Z" fill="#FEE5B5"/>
</g>
<mask id="mask1_1395_977" style="mask-type:luminance" maskUnits="userSpaceOnUse" x="6" y="13" width="101" height="93">
<path d="M6.34375 13.7754H106.344V105.999H6.34375V13.7754Z" fill="white"/>
</mask>
<g mask="url(#mask1_1395_977)">
<path d="M36.526 18.0156C30.401 20.6823 24.9479 24.4948 20.3073 29.3385C19.5729 30.1042 18.849 30.9063 18.1667 31.7188C18.0521 31.8542 17.9375 31.9896 17.8229 32.1302L36.6042 64.0938L26.3698 81.5156L8.09896 50.8802C6.94271 55.1406 6.34375 59.5781 6.34375 64.0938C6.34375 69.3021 7.13542 74.3958 8.68229 79.2865C9.15104 80.7604 9.69271 82.2188 10.2969 83.6563C12.2031 88.1563 14.724 92.3125 17.8229 96.0573C18.651 97.0573 19.5208 98.0313 20.4271 98.974L20.4479 99.0052L21.0625 99.6198C23.3438 101.901 25.8073 103.932 28.4375 105.719C28.4427 105.719 28.4427 105.719 28.4479 105.724L52.901 64.0885L35.5729 34.6042C41.6615 30.2448 48.9271 27.8802 56.5938 27.8802C68.3125 27.8802 78.75 33.5313 85.3698 42.1354H56.3281L64.5833 56.2135H106.229C105.599 52.1979 104.484 48.2969 102.891 44.5313C102.552 43.7292 102.193 42.9375 101.813 42.1563C99.3698 37.1198 96.1198 32.5521 92.125 28.5625C87.5156 23.9479 82.1406 20.3229 76.1615 17.7917C69.9583 15.1771 63.375 13.8438 56.5938 13.8438C49.625 13.8438 42.875 15.25 36.526 18.0156Z" fill="#FEE5B5"/>
</g>
<path d="M126.027 111.906V16.276" stroke="#F3F6FA" stroke-width="5" stroke-linecap="round"/>
<path d="M160.15 57.7728C158.702 57.7728 157.259 57.5957 155.816 57.252C154.384 56.8926 153.066 56.3249 151.858 55.5436C150.66 54.752 149.655 53.7207 148.837 52.4395C148.03 51.1478 147.525 49.5853 147.316 47.752H152.379C152.712 49.2103 153.28 50.3665 154.087 51.2103C154.905 52.0436 155.858 52.6374 156.941 52.9811C158.035 53.3145 159.134 53.4811 160.233 53.4811C161.983 53.4811 163.405 53.1165 164.504 52.377C165.598 51.627 166.15 50.4915 166.15 48.9603C166.15 47.7832 165.785 46.8717 165.066 46.2311C164.358 45.5957 163.426 45.1009 162.275 44.752C161.118 44.3926 159.879 44.0645 158.546 43.7728C157.337 43.5228 156.129 43.2311 154.921 42.8978C153.723 42.5645 152.629 42.1061 151.629 41.5228C150.629 40.9395 149.827 40.1634 149.233 39.1895C148.634 38.2207 148.337 36.9603 148.337 35.4186C148.337 33.5592 148.785 31.9967 149.691 30.7311C150.592 29.4551 151.822 28.4811 153.379 27.8145C154.931 27.1478 156.691 26.8145 158.65 26.8145C160.509 26.8145 162.264 27.1374 163.921 27.7728C165.572 28.4134 166.973 29.4134 168.129 30.7728C169.28 32.1217 170.009 33.8509 170.316 35.9603H165.337C164.921 34.2415 164.087 33.002 162.837 32.252C161.598 31.4915 160.181 31.1061 158.587 31.1061C156.988 31.1061 155.712 31.4499 154.754 32.127C153.796 32.8092 153.316 33.7624 153.316 34.9811C153.316 36.0124 153.65 36.8145 154.316 37.3978C154.983 37.9707 155.848 38.4134 156.921 38.7311C158.004 39.0384 159.171 39.3353 160.421 39.627C161.681 39.877 162.941 40.1895 164.191 40.5645C165.452 40.929 166.608 41.4186 167.65 42.0436C168.691 42.6582 169.53 43.4967 170.171 44.5645C170.822 45.6217 171.15 46.9811 171.15 48.6478C171.15 51.429 170.191 53.6426 168.275 55.2936C166.368 56.9499 163.66 57.7728 160.15 57.7728Z" fill="#FEE5B5"/>
<path d="M195.685 57.7728C193.253 57.7728 191.133 57.3561 189.331 56.5228C187.523 55.679 186.029 54.5384 184.852 53.1061C183.669 51.6634 182.789 50.0124 182.206 48.1478C181.633 46.2884 181.352 44.3249 181.352 42.252C181.352 40.1842 181.633 38.2259 182.206 36.377C182.789 34.5332 183.669 32.8926 184.852 31.4603C186.029 30.0176 187.523 28.8874 189.331 28.0645C191.133 27.2311 193.253 26.8145 195.685 26.8145C198.112 26.8145 200.227 27.2311 202.018 28.0645C203.82 28.8874 205.315 30.0176 206.497 31.4603C207.69 32.8926 208.57 34.5332 209.143 36.377C209.727 38.2259 210.018 40.1842 210.018 42.252C210.018 44.3249 209.727 46.2884 209.143 48.1478C208.57 50.0124 207.69 51.6634 206.497 53.1061C205.315 54.5384 203.82 55.679 202.018 56.5228C200.227 57.3561 198.112 57.7728 195.685 57.7728ZM195.685 53.2936C197.669 53.2936 199.341 52.8249 200.706 51.877C202.065 50.9342 203.102 49.6374 203.81 47.9811C204.518 46.3145 204.872 44.4082 204.872 42.252C204.872 40.1009 204.518 38.2051 203.81 36.5645C203.102 34.9134 202.065 33.6165 200.706 32.6686C199.341 31.7259 197.669 31.252 195.685 31.252C193.727 31.252 192.06 31.7259 190.685 32.6686C189.31 33.6165 188.268 34.9134 187.56 36.5645C186.852 38.2051 186.497 40.1009 186.497 42.252C186.497 44.4082 186.852 46.3145 187.56 47.9811C188.268 49.6374 189.31 50.9342 190.685 51.877C192.06 52.8249 193.727 53.2936 195.685 53.2936Z" fill="#FEE5B5"/>
<path d="M226.311 57.2513H221.332V27.293H241.165V31.7721H226.311V40.0013H239.52V44.4388H226.311V57.2513Z" fill="#FEE5B5"/>
<path d="M263.888 57.2513H258.909V31.7721H249.492V27.293H273.409V31.7721H263.888V57.2513Z" fill="#FEE5B5"/>
<path d="M297.124 57.2513H291.624L280.895 27.293H286.082L294.374 51.8763L302.645 27.293H307.832L297.124 57.2513Z" fill="#FEE5B5"/>
<path d="M337.533 57.2513H317.699V27.293H337.533V31.7721H322.678V40.0013H335.887V44.4388H322.678V52.7721H337.533V57.2513Z" fill="#FEE5B5"/>
<path d="M365.715 44.168L371.257 57.2513H365.882L360.924 45.043H353.778V57.2513H348.799V27.293H361.174C363.049 27.293 364.695 27.6003 366.111 28.2096C367.528 28.8242 368.632 29.7721 369.424 31.0638C370.226 32.3451 370.632 34.0013 370.632 36.043C370.632 38.0326 370.195 39.7096 369.32 41.0846C368.455 42.4596 367.257 43.4909 365.715 44.168ZM353.778 31.7721V40.6888H360.507C362.2 40.6888 363.492 40.3034 364.382 39.5221C365.268 38.7461 365.715 37.6419 365.715 36.2096C365.715 34.7669 365.262 33.668 364.361 32.918C363.455 32.1576 362.174 31.7721 360.507 31.7721H353.778Z" fill="#FEE5B5"/>
<path d="M393.798 57.7728C392.35 57.7728 390.908 57.5957 389.465 57.252C388.033 56.8926 386.715 56.3249 385.507 55.5436C384.309 54.752 383.303 53.7207 382.486 52.4395C381.678 51.1478 381.173 49.5853 380.965 47.752H386.027C386.361 49.2103 386.928 50.3665 387.736 51.2103C388.553 52.0436 389.507 52.6374 390.59 52.9811C391.684 53.3145 392.783 53.4811 393.882 53.4811C395.632 53.4811 397.053 53.1165 398.152 52.377C399.246 51.627 399.798 50.4915 399.798 48.9603C399.798 47.7832 399.434 46.8717 398.715 46.2311C398.007 45.5957 397.074 45.1009 395.923 44.752C394.767 44.3926 393.527 44.0645 392.194 43.7728C390.986 43.5228 389.777 43.2311 388.569 42.8978C387.371 42.5645 386.277 42.1061 385.277 41.5228C384.277 40.9395 383.475 40.1634 382.882 39.1895C382.283 38.2207 381.986 36.9603 381.986 35.4186C381.986 33.5592 382.434 31.9967 383.34 30.7311C384.241 29.4551 385.47 28.4811 387.027 27.8145C388.579 27.1478 390.34 26.8145 392.298 26.8145C394.158 26.8145 395.913 27.1374 397.569 27.7728C399.22 28.4134 400.621 29.4134 401.777 30.7728C402.928 32.1217 403.658 33.8509 403.965 35.9603H398.986C398.569 34.2415 397.736 33.002 396.486 32.252C395.246 31.4915 393.829 31.1061 392.236 31.1061C390.637 31.1061 389.361 31.4499 388.402 32.127C387.444 32.8092 386.965 33.7624 386.965 34.9811C386.965 36.0124 387.298 36.8145 387.965 37.3978C388.632 37.9707 389.496 38.4134 390.569 38.7311C391.652 39.0384 392.819 39.3353 394.069 39.627C395.329 39.877 396.59 40.1895 397.84 40.5645C399.1 40.929 400.257 41.4186 401.298 42.0436C402.34 42.6582 403.178 43.4967 403.819 44.5645C404.47 45.6217 404.798 46.9811 404.798 48.6478C404.798 51.429 403.84 53.6426 401.923 55.2936C400.017 56.9499 397.309 57.7728 393.798 57.7728Z" fill="#FEE5B5"/>
<path d="M435.939 57.2513H416.105V27.293H435.939V31.7721H421.085V40.0013H434.293V44.4388H421.085V52.7721H435.939V57.2513Z" fill="#FEE5B5"/>
<path d="M158.462 100.356C157.181 100.356 155.905 100.2 154.629 99.8978C153.363 99.5801 152.197 99.0749 151.129 98.377C150.072 97.6842 149.181 96.7728 148.462 95.6478C147.754 94.5124 147.306 93.1374 147.129 91.5228H151.608C151.9 92.8145 152.4 93.8301 153.108 94.5645C153.827 95.304 154.671 95.8249 155.629 96.127C156.587 96.4186 157.551 96.5645 158.525 96.5645C160.066 96.5645 161.322 96.2415 162.296 95.5853C163.264 94.9342 163.754 93.9342 163.754 92.5853C163.754 91.5592 163.431 90.7624 162.796 90.1895C162.171 89.6217 161.342 89.1842 160.316 88.877C159.301 88.5592 158.202 88.2728 157.025 88.0228C155.967 87.7884 154.905 87.5332 153.837 87.252C152.78 86.9603 151.816 86.5592 150.941 86.0436C150.066 85.5176 149.358 84.8301 148.816 83.9811C148.285 83.1217 148.025 82.0124 148.025 80.6478C148.025 79.0124 148.421 77.6374 149.212 76.5228C150.014 75.3978 151.108 74.5436 152.483 73.9603C153.858 73.3665 155.405 73.0645 157.129 73.0645C158.764 73.0645 160.316 73.3509 161.775 73.9186C163.233 74.4759 164.467 75.3509 165.483 76.5436C166.493 77.7415 167.139 79.2676 167.421 81.127H163.025C162.65 79.6165 161.91 78.5228 160.816 77.8561C159.733 77.179 158.483 76.8353 157.066 76.8353C155.66 76.8353 154.535 77.1426 153.691 77.752C152.842 78.3509 152.421 79.1895 152.421 80.2728C152.421 81.1634 152.712 81.8665 153.296 82.377C153.889 82.8926 154.66 83.2884 155.608 83.5645C156.551 83.8301 157.577 84.0957 158.691 84.3561C159.801 84.5801 160.91 84.8561 162.025 85.1895C163.134 85.5124 164.15 85.9395 165.066 86.4811C165.993 87.0228 166.738 87.7676 167.296 88.7103C167.863 89.6426 168.15 90.8457 168.15 92.3145C168.15 94.7624 167.301 96.7103 165.608 98.1686C163.926 99.627 161.546 100.356 158.462 100.356Z" fill="#F3F6FA"/>
<path d="M199.646 100.356C197.505 100.356 195.635 99.9863 194.042 99.252C192.443 98.502 191.125 97.4967 190.083 96.2311C189.052 94.9551 188.281 93.4967 187.771 91.8561C187.255 90.2207 187 88.4915 187 86.6686C187 84.8509 187.255 83.127 187.771 81.502C188.281 79.8665 189.052 78.4134 190.083 77.1478C191.125 75.8874 192.443 74.8926 194.042 74.1686C195.635 73.4342 197.505 73.0645 199.646 73.0645C201.797 73.0645 203.656 73.4342 205.229 74.1686C206.813 74.8926 208.13 75.8874 209.188 77.1478C210.24 78.4134 211.021 79.8665 211.521 81.502C212.031 83.127 212.292 84.8509 212.292 86.6686C212.292 88.4915 212.031 90.2207 211.521 91.8561C211.021 93.4967 210.24 94.9551 209.188 96.2311C208.13 97.4967 206.813 98.502 205.229 99.252C203.656 99.9863 201.797 100.356 199.646 100.356ZM199.646 96.3978C201.396 96.3978 202.865 95.9811 204.063 95.1478C205.271 94.3145 206.188 93.1686 206.813 91.7103C207.438 90.2415 207.75 88.5592 207.75 86.6686C207.75 84.7832 207.438 83.1061 206.813 81.6478C206.188 80.1895 205.271 79.054 204.063 78.2311C202.865 77.3978 201.396 76.9811 199.646 76.9811C197.906 76.9811 196.438 77.3978 195.229 78.2311C194.021 79.054 193.104 80.1895 192.479 81.6478C191.854 83.1061 191.542 84.7832 191.542 86.6686C191.542 88.5592 191.854 90.2415 192.479 91.7103C193.104 93.1686 194.021 94.3145 195.229 95.1478C196.438 95.9811 197.906 96.3978 199.646 96.3978Z" fill="#F3F6FA"/>
<path d="M247.951 99.8971H232.117V73.4805H236.513V95.9596H247.951V99.8971Z" fill="#F3F6FA"/>
<path d="M276.81 100.355C274.378 100.355 272.398 99.944 270.872 99.1263C269.357 98.3086 268.232 97.1576 267.497 95.668C266.773 94.168 266.414 92.4388 266.414 90.4805V73.4805H270.81V90.4805C270.81 92.2305 271.258 93.6628 272.164 94.7721C273.065 95.8867 274.612 96.4388 276.81 96.4388C279.003 96.4388 280.544 95.8867 281.435 94.7721C282.32 93.6628 282.768 92.2305 282.768 90.4805V73.4805H287.164V90.4805C287.164 92.4388 286.799 94.168 286.081 95.668C285.372 97.1576 284.253 98.3086 282.727 99.1263C281.195 99.944 279.227 100.355 276.81 100.355Z" fill="#F3F6FA"/>
<path d="M318.388 99.8971H313.992V77.418H305.68V73.4805H326.763V77.418H318.388V99.8971Z" fill="#F3F6FA"/>
<path d="M349.851 99.8971H345.455V73.4805H349.851V99.8971Z" fill="#F3F6FA"/>
<path d="M382.361 100.356C380.22 100.356 378.35 99.9863 376.757 99.252C375.158 98.502 373.84 97.4967 372.798 96.2311C371.767 94.9551 370.996 93.4967 370.486 91.8561C369.97 90.2207 369.715 88.4915 369.715 86.6686C369.715 84.8509 369.97 83.127 370.486 81.502C370.996 79.8665 371.767 78.4134 372.798 77.1478C373.84 75.8874 375.158 74.8926 376.757 74.1686C378.35 73.4342 380.22 73.0645 382.361 73.0645C384.512 73.0645 386.371 73.4342 387.944 74.1686C389.527 74.8926 390.845 75.8874 391.902 77.1478C392.954 78.4134 393.736 79.8665 394.236 81.502C394.746 83.127 395.007 84.8509 395.007 86.6686C395.007 88.4915 394.746 90.2207 394.236 91.8561C393.736 93.4967 392.954 94.9551 391.902 96.2311C390.845 97.4967 389.527 98.502 387.944 99.252C386.371 99.9863 384.512 100.356 382.361 100.356ZM382.361 96.3978C384.111 96.3978 385.579 95.9811 386.777 95.1478C387.986 94.3145 388.902 93.1686 389.527 91.7103C390.152 90.2415 390.465 88.5592 390.465 86.6686C390.465 84.7832 390.152 83.1061 389.527 81.6478C388.902 80.1895 387.986 79.054 386.777 78.2311C385.579 77.3978 384.111 76.9811 382.361 76.9811C380.621 76.9811 379.152 77.3978 377.944 78.2311C376.736 79.054 375.819 80.1895 375.194 81.6478C374.569 83.1061 374.257 84.7832 374.257 86.6686C374.257 88.5592 374.569 90.2415 375.194 91.7103C375.819 93.1686 376.736 94.3145 377.944 95.1478C379.152 95.9811 380.621 96.3978 382.361 96.3978Z" fill="#F3F6FA"/>
<path d="M419.226 99.8971H414.83V73.4805H420.163L431.351 93.8346V73.4805H435.705V99.8971H430.413L419.226 79.543V99.8971Z" fill="#F3F6FA"/>
</svg>
