<svg xmlns="http://www.w3.org/2000/svg" xmlns:xlink="http://www.w3.org/1999/xlink" width="500" zoomAndPan="magnify" viewBox="0 0 375 374.999991" height="500" preserveAspectRatio="xMidYMid meet" version="1.0"><defs><clipPath id="9e76a6201b"><path d="M 134 214 L 360.234375 214 L 360.234375 361.96875 L 134 361.96875 Z M 134 214 " clip-rule="nonzero"/></clipPath><clipPath id="8579696d29"><path d="M 14.484375 13.21875 L 360.234375 13.21875 L 360.234375 332 L 14.484375 332 Z M 14.484375 13.21875 " clip-rule="nonzero"/></clipPath></defs><g clip-path="url(#9e76a6201b)"><path fill="#fee5b5" d="M 288.230469 263.296875 C 265.300781 293.363281 229.152344 312.808594 188.554688 312.808594 C 178.957031 312.808594 169.523438 311.777344 160.386719 309.691406 L 134.890625 353.109375 C 152.152344 358.707031 170.144531 361.554688 188.554688 361.554688 C 212.042969 361.554688 234.835938 356.953125 256.316406 347.871094 C 277.046875 339.101562 295.652344 326.558594 311.632812 310.582031 C 325.464844 296.75 336.722656 280.941406 345.1875 263.496094 C 346.503906 260.792969 347.75 258.027344 348.921875 255.242188 C 354.4375 242.207031 358.296875 228.6875 360.480469 214.789062 L 216.210938 214.789062 L 187.613281 263.296875 Z M 288.230469 263.296875 " fill-opacity="1" fill-rule="nonzero"/></g><g clip-path="url(#8579696d29)"><path fill="#fee5b5" d="M 119.03125 27.890625 C 97.816406 37.140625 78.914062 50.34375 62.839844 67.117188 C 60.296875 69.773438 57.800781 72.546875 55.425781 75.363281 L 55.433594 75.371094 C 55.035156 75.839844 54.636719 76.308594 54.238281 76.789062 L 119.304688 187.507812 L 83.847656 247.851562 L 20.558594 141.734375 C 16.558594 156.492188 14.484375 171.863281 14.484375 187.507812 C 14.484375 205.550781 17.210938 223.191406 22.585938 240.136719 C 24.203125 245.246094 26.070312 250.292969 28.175781 255.269531 C 34.769531 270.863281 43.515625 285.253906 54.246094 298.226562 C 57.117188 301.691406 60.121094 305.074219 63.269531 308.335938 L 63.335938 308.4375 L 65.359375 310.464844 L 65.472656 310.574219 C 73.363281 318.46875 81.894531 325.515625 91.015625 331.695312 C 91.023438 331.703125 91.03125 331.703125 91.039062 331.710938 L 175.75 187.5 L 115.730469 85.367188 C 136.8125 70.25 161.980469 62.070312 188.546875 62.070312 C 229.144531 62.070312 265.292969 81.636719 288.222656 111.445312 L 187.621094 111.445312 L 216.222656 160.207031 L 360.480469 160.207031 C 358.296875 146.3125 354.4375 132.796875 348.921875 119.753906 C 347.738281 116.972656 346.496094 114.222656 345.1875 111.519531 C 336.722656 94.074219 325.464844 78.253906 311.632812 64.421875 C 295.652344 48.445312 277.046875 35.894531 256.316406 27.125 C 234.828125 18.0625 212.035156 13.453125 188.546875 13.453125 C 164.398438 13.453125 141.011719 18.308594 119.03125 27.890625 Z M 119.03125 27.890625 " fill-opacity="1" fill-rule="nonzero"/></g></svg>